<svg width="18" height="20" viewBox="0 0 18 20" fill="none" xmlns="http://www.w3.org/2000/svg">
<path fill-rule="evenodd" clip-rule="evenodd" d="M8.76151 0.858922C8.91981 0.851062 9.07841 0.851062 9.23672 0.858922C9.84785 0.889264 10.4105 1.06684 11.0377 1.3579C11.6483 1.64125 12.3578 2.05089 13.2554 2.56913L13.3063 2.59851C14.204 3.11676 14.9135 3.52641 15.4642 3.91353C16.0299 4.31118 16.465 4.70966 16.7968 5.22374C16.8828 5.35691 16.9621 5.49426 17.0344 5.63529C17.3137 6.17972 17.4412 6.75576 17.5028 7.44448C17.5627 8.11494 17.5627 8.93422 17.5627 9.97071V10.0295C17.5627 11.0659 17.5627 11.8853 17.5028 12.5557C17.4412 13.2445 17.3137 13.8205 17.0344 14.3649C16.9621 14.506 16.8828 14.6433 16.7968 14.7765C16.465 15.2906 16.0299 15.689 15.4642 16.0867C14.9135 16.4738 14.204 16.8835 13.3063 17.4017L13.2555 17.431C12.3578 17.9493 11.6483 18.359 11.0377 18.6423C10.4105 18.9334 9.84785 19.111 9.23672 19.1413C9.07841 19.1492 8.91981 19.1492 8.76151 19.1413C8.15037 19.111 7.58774 18.9334 6.96052 18.6423C6.34993 18.359 5.64041 17.9493 4.7428 17.4311L4.69186 17.4017C3.7943 16.8835 3.0847 16.4738 2.53404 16.0867C1.96837 15.689 1.53326 15.2906 1.20142 14.7765C1.11546 14.6433 1.03616 14.506 0.963811 14.3649C0.684521 13.8205 0.556987 13.2445 0.495448 12.5557C0.435538 11.8853 0.435542 11.066 0.435547 10.0295V9.97076C0.435542 8.93425 0.435537 8.11496 0.495447 7.44448C0.556986 6.75576 0.68452 6.17972 0.96381 5.63529C1.03616 5.49426 1.11546 5.35691 1.20142 5.22374C1.53326 4.70966 1.96836 4.31119 2.53404 3.91353C3.08473 3.52641 3.79426 3.11677 4.69191 2.59852L4.74273 2.56918C5.64037 2.05092 6.34991 1.64126 6.96052 1.3579C7.58773 1.06684 8.15037 0.889264 8.76151 0.858922ZM13.7269 7.89441C13.8789 7.58451 13.7509 7.21005 13.441 7.05803C13.1311 6.90601 12.7566 7.03401 12.6046 7.34391L11.3877 9.82478C11.0105 10.5937 9.90185 10.5562 9.57755 9.76346C8.84492 7.97259 6.34038 7.88775 5.48824 9.62494L4.27129 12.1058C4.11928 12.4157 4.24727 12.7902 4.55717 12.9422C4.86707 13.0942 5.24153 12.9662 5.39354 12.6563L6.61049 10.1754C6.98769 9.40647 8.09632 9.44403 8.42062 10.2368C9.15325 12.0276 11.6578 12.1125 12.5099 10.3753L13.7269 7.89441Z" fill="#fff"/>
</svg>
