<svg width="18" height="20" viewBox="0 0 18 20" fill="none" xmlns="http://www.w3.org/2000/svg">
<path d="M13.7279 7.89441C13.8799 7.5845 13.7519 7.21005 13.442 7.05803C13.1321 6.90601 12.7576 7.03401 12.6056 7.34391L11.3887 9.82478C11.0115 10.5937 9.90285 10.5562 9.57856 9.76346C8.84593 7.97259 6.34138 7.88775 5.48924 9.62494L4.2723 12.1058C4.12028 12.4157 4.24827 12.7902 4.55817 12.9422C4.86808 13.0942 5.24253 12.9662 5.39455 12.6563L6.61149 10.1754C6.98869 9.40647 8.09733 9.44403 8.42162 10.2368C9.15425 12.0276 11.6588 12.1125 12.5109 10.3753L13.7279 7.89441Z" fill="#1B1E25"/>
<path fill-rule="evenodd" clip-rule="evenodd" d="M9.23769 0.858922C9.07939 0.851062 8.92079 0.851062 8.76248 0.858922C8.15135 0.889264 7.58871 1.06684 6.9615 1.3579C6.35089 1.64126 5.64136 2.05091 4.74372 2.56917L4.69289 2.59852C3.79524 3.11677 3.08571 3.52641 2.53502 3.91353C1.96934 4.31119 1.53424 4.70966 1.20239 5.22374C1.11643 5.35691 1.03713 5.49426 0.964787 5.63529C0.685497 6.17972 0.557963 6.75576 0.496424 7.44448C0.436514 8.11496 0.436518 8.93425 0.436524 9.97076V10.0295C0.436518 11.066 0.436514 11.8853 0.496424 12.5557C0.557963 13.2445 0.685497 13.8205 0.964787 14.3649C1.03713 14.506 1.11643 14.6433 1.20239 14.7765C1.53424 15.2906 1.96934 15.689 2.53502 16.0867C3.08569 16.4738 3.79519 16.8834 4.69279 17.4016L4.7437 17.431C5.64132 17.9493 6.3509 18.359 6.9615 18.6423C7.58871 18.9334 8.15135 19.111 8.76248 19.1413C8.92079 19.1492 9.07939 19.1492 9.2377 19.1413C9.84883 19.111 10.4115 18.9334 11.0387 18.6423C11.6493 18.359 12.3588 17.9493 13.2565 17.431L13.3073 17.4017C14.2049 16.8835 14.9145 16.4738 15.4652 16.0867C16.0308 15.689 16.4659 15.2906 16.7978 14.7765C16.8837 14.6433 16.963 14.506 17.0354 14.3649C17.3147 13.8205 17.4422 13.2445 17.5038 12.5557C17.5637 11.8853 17.5637 11.066 17.5637 10.0295V9.97077C17.5637 8.93428 17.5637 8.11494 17.5038 7.44448C17.4422 6.75576 17.3147 6.17972 17.0354 5.63529C16.963 5.49426 16.8837 5.35691 16.7978 5.22374C16.4659 4.70966 16.0308 4.31118 15.4652 3.91353C14.9145 3.52641 14.2049 3.11676 13.3073 2.59851L13.2564 2.56916C12.3588 2.05091 11.6493 1.64125 11.0387 1.3579C10.4115 1.06684 9.84883 0.889264 9.23769 0.858922ZM8.82447 2.10738C8.94148 2.10157 9.0587 2.10157 9.17571 2.10738C9.56973 2.12695 9.96926 2.23967 10.5125 2.49176C11.0666 2.7489 11.7282 3.13021 12.6569 3.66637C13.5855 4.20254 14.2466 4.58484 14.7463 4.93614C15.2362 5.28056 15.5336 5.5702 15.7476 5.90165C15.8111 6.00008 15.8697 6.1016 15.9232 6.20584C16.1033 6.55685 16.2054 6.95921 16.2587 7.55573C16.3131 8.16416 16.3137 8.92778 16.3137 10.0001C16.3137 11.0724 16.3131 11.8361 16.2587 12.4445C16.2054 13.041 16.1033 13.4434 15.9232 13.7944C15.8697 13.8986 15.8111 14.0001 15.7476 14.0986C15.5336 14.43 15.2362 14.7197 14.7463 15.0641C14.2466 15.4154 13.5855 15.7977 12.6569 16.3338C11.7282 16.87 11.0666 17.2513 10.5125 17.5085C9.96926 17.7605 9.56973 17.8733 9.17571 17.8928C9.0587 17.8986 8.94148 17.8986 8.82447 17.8928C8.43045 17.8733 8.03092 17.7605 7.48767 17.5085C6.93357 17.2513 6.27197 16.87 5.34331 16.3338C4.41465 15.7977 3.75362 15.4154 3.25388 15.0641C2.76394 14.7197 2.46655 14.43 2.2526 14.0986C2.18907 14.0001 2.13045 13.8986 2.07698 13.7944C1.89691 13.4434 1.79476 13.041 1.74146 12.4445C1.6871 11.8361 1.68652 11.0724 1.68652 10.0001C1.68652 8.92779 1.6871 8.16416 1.74146 7.55573C1.79476 6.95921 1.89691 6.55686 2.07698 6.20584C2.13045 6.1016 2.18907 6.00008 2.2526 5.90165C2.46655 5.5702 2.76393 5.28056 3.25388 4.93614C3.75362 4.58485 4.41465 4.20254 5.34331 3.66637C6.27197 3.13021 6.93357 2.7489 7.48767 2.49176C8.03092 2.23967 8.43044 2.12695 8.82447 2.10738Z" fill="#1B1E25"/>
</svg>
