<svg width="18" height="18" viewBox="0 0 18 18" fill="none" xmlns="http://www.w3.org/2000/svg">
<path fill-rule="evenodd" clip-rule="evenodd" d="M6.5 0.0415039C6.84518 0.0415039 7.125 0.321326 7.125 0.666504V1.71701C7.6827 1.70817 8.30236 1.70817 8.99079 1.70817H9.00921C9.69764 1.70817 10.3173 1.70817 10.875 1.71701V0.666504C10.875 0.321326 11.1548 0.0415039 11.5 0.0415039C11.8452 0.0415039 12.125 0.321326 12.125 0.666504V1.76115C13.3849 1.84014 14.3529 2.04429 15.1498 2.6233C15.5566 2.91885 15.9143 3.27658 16.2099 3.68337C16.6981 4.3553 16.9167 5.14229 17.0219 6.11357C17.125 7.06534 17.125 8.26501 17.125 9.79544V9.84272C17.125 10.8093 17.125 11.6403 17.1005 12.3546C17.047 13.9158 16.8781 15.0633 16.2099 15.983C15.9143 16.3898 15.5566 16.7475 15.1498 17.043C14.2301 17.7113 13.0826 17.8802 11.5214 17.9337C10.807 17.9582 9.9758 17.9582 9.00899 17.9582H8.96227C7.43184 17.9582 6.23217 17.9582 5.2804 17.8551C4.30912 17.7498 3.52213 17.5312 2.8502 17.043C2.44341 16.7475 2.08568 16.3898 1.79013 15.983C1.30194 15.311 1.08334 14.5241 0.978107 13.5528C0.874988 12.601 0.874993 11.4013 0.875 9.87088V9.79546C0.874993 8.26502 0.874988 7.06535 0.978107 6.11357C1.08334 5.14229 1.30194 4.3553 1.79013 3.68337C2.08568 3.27658 2.44341 2.91885 2.8502 2.6233C3.64713 2.04429 4.61507 1.84014 5.875 1.76115V0.666504C5.875 0.321326 6.15482 0.0415039 6.5 0.0415039ZM5.875 3.01421C4.73996 3.09227 4.08481 3.27138 3.58493 3.63457C3.28426 3.85302 3.01985 4.11743 2.8014 4.4181C2.49383 4.84143 2.31454 5.38328 2.22083 6.24821C2.12586 7.12483 2.125 8.25686 2.125 9.83317C2.125 11.4095 2.12586 12.5415 2.22083 13.4181C2.31454 14.2831 2.49383 14.8249 2.8014 15.2482C3.01985 15.5489 3.28426 15.8133 3.58493 16.0318C4.00826 16.3393 4.55011 16.5186 5.41504 16.6123C6.29166 16.7073 7.42369 16.7082 9 16.7082C9.70696 16.7082 10.3265 16.7081 10.8765 16.6992C10.8802 16.3036 10.8925 16.0124 10.934 15.7503C11.2587 13.6999 12.8668 12.0919 14.9171 11.7672C15.1793 11.7256 15.4704 11.7133 15.866 11.7097C15.875 11.1597 15.875 10.5401 15.875 9.83317C15.875 8.25686 15.8741 7.12483 15.7792 6.24821C15.6855 5.38328 15.5062 4.84143 15.1986 4.4181C14.9802 4.11743 14.7157 3.85302 14.4151 3.63457C13.9152 3.27138 13.26 3.09227 12.125 3.01421V3.1665C12.125 3.51168 11.8452 3.7915 11.5 3.7915C11.1548 3.7915 10.875 3.51168 10.875 3.1665V2.96716C10.3253 2.95821 9.70631 2.95817 9 2.95817C8.29369 2.95817 7.67465 2.95821 7.125 2.96716V3.1665C7.125 3.51168 6.84518 3.7915 6.5 3.7915C6.15482 3.7915 5.875 3.51168 5.875 3.1665V3.01421ZM15.8188 12.9605C15.4813 12.9644 15.2835 12.9747 15.1126 13.0018C13.5972 13.2418 12.4086 14.4303 12.1686 15.9458C12.1415 16.1167 12.1312 16.3145 12.1273 16.652C13.2609 16.5738 13.9155 16.3947 14.4151 16.0318C14.7157 15.8133 14.9802 15.5489 15.1986 15.2482C15.5615 14.7487 15.7407 14.0941 15.8188 12.9605Z" fill="#1B1E25"/>
<path d="M5.66667 6.49984C5.66667 6.96007 5.29357 7.33317 4.83333 7.33317C4.3731 7.33317 4 6.96007 4 6.49984C4 6.0396 4.3731 5.6665 4.83333 5.6665C5.29357 5.6665 5.66667 6.0396 5.66667 6.49984Z" fill="#1B1E25"/>
<path d="M5.66667 9.83317C5.66667 10.2934 5.29357 10.6665 4.83333 10.6665C4.3731 10.6665 4 10.2934 4 9.83317C4 9.37293 4.3731 8.99984 4.83333 8.99984C5.29357 8.99984 5.66667 9.37293 5.66667 9.83317Z" fill="#1B1E25"/>
<path d="M9.83333 6.49984C9.83333 6.96007 9.46024 7.33317 9 7.33317C8.53976 7.33317 8.16667 6.96007 8.16667 6.49984C8.16667 6.0396 8.53976 5.6665 9 5.6665C9.46024 5.6665 9.83333 6.0396 9.83333 6.49984Z" fill="#1B1E25"/>
<path d="M9.83333 9.83317C9.83333 10.2934 9.46024 10.6665 9 10.6665C8.53976 10.6665 8.16667 10.2934 8.16667 9.83317C8.16667 9.37293 8.53976 8.99984 9 8.99984C9.46024 8.99984 9.83333 9.37293 9.83333 9.83317Z" fill="#1B1E25"/>
<path d="M9.83333 13.1665C9.83333 13.6267 9.46024 13.9998 9 13.9998C8.53976 13.9998 8.16667 13.6267 8.16667 13.1665C8.16667 12.7063 8.53976 12.3332 9 12.3332C9.46024 12.3332 9.83333 12.7063 9.83333 13.1665Z" fill="#1B1E25"/>
<path d="M14 6.49984C14 6.96007 13.6269 7.33317 13.1667 7.33317C12.7064 7.33317 12.3333 6.96007 12.3333 6.49984C12.3333 6.0396 12.7064 5.6665 13.1667 5.6665C13.6269 5.6665 14 6.0396 14 6.49984Z" fill="#1B1E25"/>
<path d="M14 9.83317C14 10.2934 13.6269 10.6665 13.1667 10.6665C12.7064 10.6665 12.3333 10.2934 12.3333 9.83317C12.3333 9.37293 12.7064 8.99984 13.1667 8.99984C13.6269 8.99984 14 9.37293 14 9.83317Z" fill="#1B1E25"/>
<path d="M5.66667 13.1665C5.66667 13.6267 5.29357 13.9998 4.83333 13.9998C4.3731 13.9998 4 13.6267 4 13.1665C4 12.7063 4.3731 12.3332 4.83333 12.3332C5.29357 12.3332 5.66667 12.7063 5.66667 13.1665Z" fill="#1B1E25"/>
</svg>
