<svg width="20" height="20" viewBox="0 0 20 20" fill="none" xmlns="http://www.w3.org/2000/svg">
<path fill-rule="evenodd" clip-rule="evenodd" d="M6.25 3.44396C5.38215 3.54687 4.74558 3.74555 4.21756 4.12918C3.86383 4.38618 3.55276 4.69725 3.29576 5.05098C2.5 6.14625 2.5 7.70864 2.5 10.8334C2.5 13.9582 2.5 15.5206 3.29576 16.6159C3.55276 16.9696 3.86383 17.2807 4.21756 17.5377C5.31283 18.3334 6.87522 18.3334 10 18.3334C10.6991 18.3334 11.32 18.3334 11.875 18.3245L11.875 18.2661C11.8749 17.5561 11.8749 17.1236 11.934 16.7505C12.2587 14.7002 13.8668 13.0921 15.9171 12.7674C16.2901 12.7083 16.7226 12.7084 17.4326 12.7084L17.4911 12.7084C17.5 12.1535 17.5 11.5328 17.5 10.8338C17.5 7.70902 17.5 6.14625 16.7042 5.05098C16.4472 4.69725 16.1362 4.38618 15.7824 4.12918C15.2544 3.74555 14.6178 3.54687 13.75 3.44396V4.16675C13.75 4.8571 13.1904 5.41675 12.5 5.41675C11.8096 5.41675 11.25 4.8571 11.25 4.16675V3.33575C10.8633 3.33341 10.4477 3.33341 10 3.33341C9.55234 3.33341 9.13675 3.33341 8.75 3.33575V4.16675C8.75 4.8571 8.19036 5.41675 7.5 5.41675C6.80964 5.41675 6.25 4.8571 6.25 4.16675V3.44396ZM5.83333 8.33341C6.29357 8.33341 6.66667 7.96032 6.66667 7.50008C6.66667 7.03984 6.29357 6.66675 5.83333 6.66675C5.3731 6.66675 5 7.03984 5 7.50008C5 7.96032 5.3731 8.33341 5.83333 8.33341ZM6.66667 10.8334C6.66667 11.2937 6.29357 11.6667 5.83333 11.6667C5.3731 11.6667 5 11.2937 5 10.8334C5 10.3732 5.3731 10.0001 5.83333 10.0001C6.29357 10.0001 6.66667 10.3732 6.66667 10.8334ZM10 8.33341C10.4602 8.33341 10.8333 7.96032 10.8333 7.50008C10.8333 7.03984 10.4602 6.66675 10 6.66675C9.53976 6.66675 9.16667 7.03984 9.16667 7.50008C9.16667 7.96032 9.53976 8.33341 10 8.33341ZM10.8333 10.8334C10.8333 11.2937 10.4602 11.6667 10 11.6667C9.53976 11.6667 9.16667 11.2937 9.16667 10.8334C9.16667 10.3732 9.53976 10.0001 10 10.0001C10.4602 10.0001 10.8333 10.3732 10.8333 10.8334ZM10 15.0001C10.4602 15.0001 10.8333 14.627 10.8333 14.1667C10.8333 13.7065 10.4602 13.3334 10 13.3334C9.53976 13.3334 9.16667 13.7065 9.16667 14.1667C9.16667 14.627 9.53976 15.0001 10 15.0001ZM15 7.50008C15 7.96032 14.6269 8.33341 14.1667 8.33341C13.7064 8.33341 13.3333 7.96032 13.3333 7.50008C13.3333 7.03984 13.7064 6.66675 14.1667 6.66675C14.6269 6.66675 15 7.03984 15 7.50008ZM14.1667 11.6667C14.6269 11.6667 15 11.2937 15 10.8334C15 10.3732 14.6269 10.0001 14.1667 10.0001C13.7064 10.0001 13.3333 10.3732 13.3333 10.8334C13.3333 11.2937 13.7064 11.6667 14.1667 11.6667ZM6.66667 14.1667C6.66667 14.627 6.29357 15.0001 5.83333 15.0001C5.3731 15.0001 5 14.627 5 14.1667C5 13.7065 5.3731 13.3334 5.83333 13.3334C6.29357 13.3334 6.66667 13.7065 6.66667 14.1667Z" fill="white"/>
<path d="M17.4456 13.9584C16.6869 13.9585 16.3696 13.9613 16.1126 14.002C14.5972 14.242 13.4086 15.4306 13.1686 16.946C13.1279 17.203 13.1251 17.5203 13.125 18.279C14.3247 18.2003 15.1351 18.0079 15.7824 17.5377C16.1362 17.2807 16.4472 16.9696 16.7042 16.6159C17.1745 15.9686 17.3669 15.1581 17.4456 13.9584Z" fill="white"/>
<path d="M8.125 1.66675C8.125 1.32157 7.84518 1.04175 7.5 1.04175C7.15482 1.04175 6.875 1.32157 6.875 1.66675V4.16675C6.875 4.51193 7.15482 4.79175 7.5 4.79175C7.84518 4.79175 8.125 4.51193 8.125 4.16675V1.66675Z" fill="white"/>
<path d="M13.125 1.66675C13.125 1.32157 12.8452 1.04175 12.5 1.04175C12.1548 1.04175 11.875 1.32157 11.875 1.66675V4.16675C11.875 4.51193 12.1548 4.79175 12.5 4.79175C12.8452 4.79175 13.125 4.51193 13.125 4.16675V1.66675Z" fill="white"/>
</svg>
