<svg width="18" height="20" viewBox="0 0 18 20" fill="none" xmlns="http://www.w3.org/2000/svg">
<path fill-rule="evenodd" clip-rule="evenodd" d="M8.99911 3.54178C6.81299 3.54178 5.04078 5.31398 5.04078 7.50011C5.04078 9.68624 6.81299 11.4584 8.99911 11.4584C11.1852 11.4584 12.9574 9.68624 12.9574 7.50011C12.9574 5.31398 11.1852 3.54178 8.99911 3.54178ZM6.29078 7.50011C6.29078 6.00434 7.50334 4.79178 8.99911 4.79178C10.4949 4.79178 11.7074 6.00434 11.7074 7.50011C11.7074 8.99588 10.4949 10.2084 8.99911 10.2084C7.50334 10.2084 6.29078 8.99588 6.29078 7.50011Z" fill="#1B1E25"/>
<path fill-rule="evenodd" clip-rule="evenodd" d="M9.23672 0.858922C9.07841 0.851062 8.91981 0.851062 8.76151 0.858922C8.15037 0.889264 7.58774 1.06684 6.96052 1.3579C6.34992 1.64126 5.64039 2.05091 4.74275 2.56917L4.69191 2.59852C3.79427 3.11677 3.08473 3.52641 2.53404 3.91353C1.96836 4.31118 1.53326 4.70966 1.20142 5.22374C1.11546 5.35691 1.03616 5.49426 0.96381 5.63529C0.684521 6.17972 0.556986 6.75576 0.495447 7.44448C0.435538 8.11496 0.435542 8.93425 0.435547 9.97076V10.0295C0.435542 11.066 0.435538 11.8853 0.495447 12.5557C0.556986 13.2445 0.684521 13.8205 0.96381 14.3649C1.03616 14.506 1.11546 14.6433 1.20142 14.7765C1.6083 15.4068 2.17225 15.8652 2.9406 16.3591C3.42064 16.6677 4.00464 17.0049 4.7054 17.4095L4.74274 17.431C5.64038 17.9493 6.34991 18.359 6.96052 18.6423C7.58774 18.9334 8.15037 19.111 8.76151 19.1413C8.91981 19.1492 9.07841 19.1492 9.23672 19.1413C9.84785 19.111 10.4105 18.9334 11.0377 18.6423C11.6483 18.359 12.3578 17.9493 13.2555 17.431L13.2934 17.4092C14.0007 17.0008 14.5892 16.661 15.0719 16.3499C15.8329 15.8595 16.3924 15.403 16.7968 14.7765C16.8828 14.6433 16.9621 14.506 17.0344 14.3649C17.3137 13.8205 17.4412 13.2445 17.5028 12.5557C17.5627 11.8853 17.5627 11.066 17.5627 10.0295V9.97077C17.5627 8.93428 17.5627 8.11495 17.5028 7.44448C17.4412 6.75576 17.3137 6.17972 17.0344 5.63529C16.9621 5.49426 16.8828 5.35691 16.7968 5.22374C16.465 4.70966 16.0299 4.31118 15.4642 3.91353C14.9135 3.52641 14.204 3.11677 13.3063 2.59852L13.2555 2.56916C12.3578 2.05091 11.6483 1.64126 11.0377 1.3579C10.4105 1.06684 9.84785 0.889264 9.23672 0.858922ZM8.82349 2.10738C8.9405 2.10157 9.05773 2.10157 9.17474 2.10738C9.56876 2.12695 9.96828 2.23967 10.5115 2.49176C11.0656 2.7489 11.7272 3.13021 12.6559 3.66637C13.5846 4.20254 14.2456 4.58484 14.7453 4.93614C15.2353 5.28056 15.5326 5.5702 15.7466 5.90165C15.8101 6.00008 15.8687 6.1016 15.9222 6.20584C16.1023 6.55685 16.2044 6.95921 16.2577 7.55573C16.3121 8.16416 16.3127 8.92778 16.3127 10.0001C16.3127 11.0724 16.3121 11.8361 16.2577 12.4445C16.2044 13.041 16.1023 13.4434 15.9222 13.7944C15.8687 13.8986 15.8101 14.0001 15.7466 14.0986C15.5759 14.3629 15.353 14.5999 15.0216 14.8596C14.3651 13.5826 13.0348 12.7084 11.4991 12.7084H6.49911C4.96344 12.7084 3.6331 13.5826 2.97665 14.8596C2.64528 14.6 2.4223 14.363 2.25162 14.0986C2.18809 14.0001 2.12948 13.8986 2.076 13.7944C1.89593 13.4434 1.79379 13.041 1.74049 12.4445C1.68612 11.8361 1.68555 11.0724 1.68555 10.0001C1.68555 8.92778 1.68612 8.16416 1.74049 7.55573C1.79379 6.95921 1.89593 6.55685 2.076 6.20584C2.12948 6.1016 2.18809 6.00008 2.25162 5.90165C2.46558 5.5702 2.76296 5.28056 3.2529 4.93614C3.75264 4.58484 4.41367 4.20254 5.34233 3.66637C6.27099 3.13021 6.93259 2.7489 7.4867 2.49176C8.02994 2.23967 8.42947 2.12695 8.82349 2.10738ZM11.4991 13.9584C12.6008 13.9584 13.5501 14.6167 13.973 15.5623C13.6024 15.7873 13.1695 16.0373 12.6559 16.3338C11.7272 16.87 11.0656 17.2513 10.5115 17.5085C9.96828 17.7605 9.56876 17.8733 9.17474 17.8928C9.05773 17.8986 8.9405 17.8986 8.82349 17.8928C8.42947 17.8733 8.02994 17.7605 7.4867 17.5085C6.93259 17.2513 6.27099 16.87 5.34233 16.3338C4.82876 16.0373 4.39593 15.7873 4.02527 15.5623C4.44808 14.6167 5.39737 13.9584 6.49911 13.9584H11.4991Z" fill="#1B1E25"/>
</svg>
