<svg width="18" height="18" viewBox="0 0 18 18" fill="none" xmlns="http://www.w3.org/2000/svg">
<path d="M5.66667 11.7083C5.32149 11.7083 5.04167 11.9882 5.04167 12.3333C5.04167 12.6785 5.32149 12.9583 5.66667 12.9583H12.3333C12.6785 12.9583 12.9583 12.6785 12.9583 12.3333C12.9583 11.9882 12.6785 11.7083 12.3333 11.7083H5.66667Z" fill="#1B1E25"/>
<path fill-rule="evenodd" clip-rule="evenodd" d="M3.37894 0.875001C3.07797 0.874985 2.81106 0.874972 2.58952 0.895302C2.35159 0.917136 2.11004 0.966051 1.8777 1.09792C1.49521 1.31501 1.20762 1.66573 1.04147 2.07233C0.944999 2.30844 0.908348 2.55312 0.891365 2.81019C0.87499 3.05804 0.874995 3.36103 0.875 3.72436V9.00415C0.875 9.77732 0.875 10.7829 0.900752 11.6748C0.913644 12.1213 0.933174 12.5467 0.963227 12.9045C0.991677 13.2433 1.03356 13.5803 1.10952 13.814C1.5835 15.2728 2.7272 16.4165 4.18596 16.8905C4.9089 17.1254 5.77657 17.1252 7.19847 17.125H10.8015C12.2234 17.1252 13.0911 17.1254 13.814 16.8905C15.2728 16.4165 16.4165 15.2728 16.8905 13.814C17.1254 13.0911 17.1252 12.2234 17.125 10.8015V10.5318C17.1252 9.10991 17.1254 8.24223 16.8905 7.5193C16.4165 6.06053 15.2728 4.91684 13.814 4.44286C13.6186 4.37934 13.336 4.34393 13.059 4.31892C12.7615 4.29207 12.4013 4.27209 12.0126 4.25702C11.2341 4.22685 10.3153 4.21542 9.5035 4.21105C9.11156 4.20894 8.686 3.87469 8.45296 3.30458L8.44514 3.28544C8.10028 2.44149 7.51325 1.73784 6.75967 1.31013C6.34038 1.07216 5.88419 0.970188 5.35721 0.921828C4.84679 0.874989 4.21706 0.874995 3.43477 0.875002L3.37894 0.875001ZM2.49471 2.18503C2.51162 2.17543 2.55625 2.15361 2.70374 2.14007C2.86129 2.12561 3.07013 2.125 3.40476 2.125C4.22405 2.125 4.79637 2.12561 5.24298 2.1666C5.67953 2.20666 5.9388 2.28153 6.14266 2.39724C6.62608 2.67161 7.03715 3.14432 7.28801 3.75825L7.29588 3.77751C7.62824 4.5906 8.39444 5.4551 9.49677 5.46103C10.305 5.46538 11.207 5.47674 11.9642 5.50609C12.3433 5.52078 12.6795 5.53975 12.9466 5.56385C13.234 5.5898 13.3837 5.61737 13.4278 5.63168C14.506 5.98201 15.3513 6.82735 15.7017 7.90557C15.8673 8.41533 15.875 9.06696 15.875 10.6667C15.875 12.2664 15.8673 12.918 15.7017 13.4278C15.3513 14.506 14.506 15.3513 13.4278 15.7017C12.918 15.8673 12.2664 15.875 10.6667 15.875H7.33333C5.73362 15.875 5.08199 15.8673 4.57223 15.7017C3.49401 15.3513 2.64868 14.506 2.29834 13.4278C2.27234 13.3477 2.23775 13.1441 2.20884 12.7999C2.18154 12.4748 2.16283 12.0751 2.15023 11.6387C2.12505 10.7664 2.125 9.77734 2.125 9V3.7449C2.125 3.35577 2.12532 3.09431 2.13865 2.89259C2.15167 2.69542 2.17504 2.60281 2.1986 2.54515C2.27075 2.36859 2.38239 2.24878 2.49471 2.18503Z" fill="#1B1E25"/>
</svg>
