<svg width="20" height="20" viewBox="0 0 16 16" fill="none" xmlns="http://www.w3.org/2000/svg">
<path fillRule="evenodd" clipRule="evenodd" d="M9.66667 15.5H6.33333C4.78227 15.5 4.00673 15.5 3.3791 15.2961C2.1106 14.8839 1.11609 13.8894 0.703931 12.6209C0.5 11.9933 0.5 9.55107 0.5 8V2.7449C0.5 1.98331 0.5 1.60251 0.620038 1.30874C0.739181 1.01715 0.938798 0.781892 1.1862 0.641473C1.43546 0.5 1.75856 0.5 2.40476 0.5C4.02026 0.5 4.82801 0.5 5.45116 0.853683C6.06967 1.20473 6.56871 1.79289 6.86657 2.52184L6.87442 2.54104C7.15712 3.23265 7.753 3.83202 8.50014 3.83604C10.1202 3.84476 12.1418 3.88161 12.6209 4.03726C13.8894 4.44942 14.8839 5.44394 15.2961 6.71243C15.5 7.34007 15.5 8.1156 15.5 9.66667C15.5 11.2177 15.5 11.9933 15.2961 12.6209C14.8839 13.8894 13.8894 14.8839 12.6209 15.2961C11.9933 15.5 11.2177 15.5 9.66667 15.5ZM4.66667 10.7083C4.32149 10.7083 4.04167 10.9882 4.04167 11.3333C4.04167 11.6785 4.32149 11.9583 4.66667 11.9583H11.3333C11.6785 11.9583 11.9583 11.6785 11.9583 11.3333C11.9583 10.9882 11.6785 10.7083 11.3333 10.7083H4.66667Z" fill="#fff"/>
</svg>
