<svg width="19" height="19" viewBox="0 0 19 19" fill="none" xmlns="http://www.w3.org/2000/svg">
<path fill-rule="evenodd" clip-rule="evenodd" d="M13.7763 0.242637C12.7799 -0.170082 11.8127 0.0875139 11.1247 0.695476C10.4526 1.28933 10.042 2.21301 10.042 3.19438V3.99916C10.042 6.41541 12.0007 8.37416 14.417 8.37416H15.2218C16.2031 8.37416 17.1268 7.96353 17.7207 7.2915C18.3286 6.6035 18.5862 5.63625 18.1735 4.63986C17.7652 3.65409 17.1667 2.75839 16.4122 2.00392C15.6578 1.24944 14.7621 0.650957 13.7763 0.242637ZM11.292 3.19438C11.292 2.54915 11.565 1.97444 11.9524 1.63216C12.3237 1.304 12.7916 1.18773 13.2979 1.39749C14.1321 1.74299 14.89 2.2494 15.5284 2.8878C16.1668 3.5262 16.6732 4.2841 17.0187 5.11821C17.2284 5.6246 17.1122 6.09241 16.784 6.46378C16.4417 6.85112 15.867 7.12416 15.2218 7.12416H14.417C12.6911 7.12416 11.292 5.72505 11.292 3.99916V3.19438Z" fill="#1B1E25"/>
<path fill-rule="evenodd" clip-rule="evenodd" d="M8.792 4.41583C8.792 3.1997 7.76141 2.01096 6.37623 2.32396C5.40939 2.54243 4.48561 2.93713 3.65299 3.49347C2.31684 4.38626 1.27544 5.65521 0.660475 7.13986C0.0455126 8.62451 -0.115389 10.2582 0.198115 11.8343C0.51162 13.4104 1.28545 14.8581 2.42175 15.9944C3.55805 17.1307 5.00579 17.9045 6.58189 18.218C8.15798 18.5315 9.79165 18.3706 11.2763 17.7557C12.7609 17.1407 14.0299 16.0993 14.9227 14.7632C15.479 13.9305 15.8737 13.0068 16.0922 12.0399C16.4052 10.6547 15.2165 9.62416 14.0003 9.62416H12.3337C10.3777 9.62416 8.792 8.0385 8.792 6.08249V4.41583ZM6.65174 3.54322C7.06225 3.45046 7.542 3.79101 7.542 4.41583V6.08249C7.542 8.72886 9.6873 10.8742 12.3337 10.8742H14.0003C14.6251 10.8742 14.9657 11.3539 14.8729 11.7644C14.6881 12.5825 14.3541 13.3642 13.8833 14.0687C13.1279 15.1993 12.0542 16.0805 10.7979 16.6008C9.5417 17.1212 8.15937 17.2573 6.82575 16.9921C5.49213 16.7268 4.26712 16.072 3.30564 15.1105C2.34415 14.149 1.68937 12.924 1.4241 11.5904C1.15882 10.2568 1.29497 8.87445 1.81532 7.61821C2.33568 6.36197 3.21686 5.28824 4.34745 4.53281C5.05197 4.06206 5.83362 3.72808 6.65174 3.54322Z" fill="#1B1E25"/>
</svg>
