<svg width="18" height="20" viewBox="0 0 18 20" fill="none" xmlns="http://www.w3.org/2000/svg">
<path d="M7.12533 9.99993C7.12533 8.9644 7.96479 8.12493 9.00033 8.12493C10.0359 8.12493 10.8753 8.9644 10.8753 9.99993C10.8753 11.0355 10.0359 11.8749 9.00033 11.8749C7.96479 11.8749 7.12533 11.0355 7.12533 9.99993Z" fill="white"/>
<path fill-rule="evenodd" clip-rule="evenodd" d="M6.15469 2.6935C6.97169 -0.169317 11.0289 -0.169318 11.8459 2.6935C12.099 3.5805 13.0103 4.10664 13.905 3.88236C16.7928 3.1585 18.8214 6.67212 16.7506 8.81108C16.109 9.4738 16.109 10.5261 16.7506 11.1888C18.8214 13.3278 16.7928 16.8414 13.905 16.1175C13.0103 15.8932 12.099 16.4194 11.8459 17.3064C11.0289 20.1692 6.9717 20.1692 6.15469 17.3064C5.90155 16.4194 4.99026 15.8932 4.09552 16.1175C1.20774 16.8414 -0.820842 13.3278 1.24993 11.1888C1.89152 10.5261 1.89152 9.4738 1.24993 8.81108C-0.820842 6.67212 1.20774 3.1585 4.09552 3.88236C4.99026 4.10664 5.90155 3.5805 6.15469 2.6935ZM9.00033 6.87493C7.27444 6.87493 5.87533 8.27404 5.87533 9.99993C5.87533 11.7258 7.27444 13.1249 9.00033 13.1249C10.7262 13.1249 12.1253 11.7258 12.1253 9.99993C12.1253 8.27404 10.7262 6.87493 9.00033 6.87493Z" fill="white"/>
</svg>
