<svg width="18" height="18" viewBox="0 0 18 18" fill="none" xmlns="http://www.w3.org/2000/svg">
<path fill-rule="evenodd" clip-rule="evenodd" d="M2.67856 6.30066C2.95764 4.83487 3.66415 3.43385 4.79689 2.29969C7.80401 -0.711225 12.6799 -0.711225 15.687 2.29969C16.6043 3.21819 17.4145 4.57779 17.7688 6.08725C18.1252 7.60584 18.0264 9.31165 17.0636 10.8628C17.0143 10.9422 16.9839 10.9914 16.9623 11.0283C16.9524 11.0452 16.9472 11.0549 16.945 11.0591C16.9429 11.0644 16.9417 11.0681 16.941 11.0704C16.941 11.0731 16.9411 11.0778 16.9416 11.0849C16.9422 11.0882 16.9435 11.0954 16.9463 11.1078C16.9535 11.1393 16.9643 11.1815 16.9836 11.256L16.9892 11.2776C17.0998 11.7048 17.1907 12.0558 17.2441 12.3395C17.2979 12.625 17.329 12.9132 17.2718 13.1946C17.1087 13.9971 16.4821 14.6248 15.6797 14.7883C15.3982 14.8457 15.11 14.8145 14.8247 14.7606C14.5414 14.7071 14.1907 14.6161 13.7641 14.5054L13.7425 14.4998C13.6681 14.4805 13.6259 14.4696 13.5945 14.4625C13.5822 14.4597 13.5751 14.4583 13.5718 14.4577C13.5652 14.4573 13.5608 14.4572 13.558 14.4571C13.5557 14.4579 13.5522 14.459 13.5473 14.4609C13.5431 14.4631 13.5334 14.4684 13.5162 14.4784C13.4792 14.5 13.4295 14.5306 13.3497 14.58C12.8331 14.8997 12.2954 15.1231 11.7507 15.2646C11.5487 15.546 11.3215 15.8146 11.0692 16.0672C10.326 16.8114 9.19074 17.4868 7.92625 17.7896C6.65299 18.0946 5.20231 18.0307 3.88964 17.2185C3.82599 17.1791 3.78709 17.1551 3.75841 17.1383C3.73552 17.1437 3.70406 17.1518 3.6519 17.1654L3.63088 17.1708C3.28236 17.2613 2.99046 17.337 2.7534 17.3818C2.51448 17.4269 2.26006 17.4559 2.00684 17.4043C1.30255 17.2608 0.752767 16.7099 0.609646 16.0057C0.558203 15.7526 0.587105 15.4983 0.632143 15.2591C0.676831 15.0218 0.752473 14.7297 0.84282 14.3807L0.848267 14.3596C0.861933 14.3068 0.870061 14.2752 0.875508 14.2522C0.858757 14.2238 0.834848 14.1852 0.795416 14.1216C-0.0159911 12.8143 -0.0977067 11.3783 0.201052 10.1054C0.497666 8.84177 1.17531 7.704 1.9448 6.93354C2.17665 6.70139 2.42206 6.4904 2.67856 6.30066ZM5.68132 3.18302C8.20017 0.660999 12.2837 0.660999 14.8025 3.18302C15.5609 3.94229 16.2523 5.09677 16.5518 6.37289C16.8492 7.63986 16.7542 8.9911 16.0016 10.2036C15.9945 10.2151 15.9872 10.2267 15.98 10.2384C15.9082 10.3535 15.8309 10.4776 15.7861 10.5902C15.7067 10.79 15.6791 10.9708 15.6956 11.1852C15.7048 11.3057 15.7372 11.4299 15.7656 11.539C15.7683 11.5493 15.7709 11.5593 15.7735 11.5693C15.891 12.0234 15.971 12.3335 16.0157 12.5708C16.0609 12.8111 16.0548 12.9061 16.0468 12.9456C15.9835 13.2573 15.7404 13.5003 15.4301 13.5635C15.391 13.5715 15.2965 13.5776 15.0566 13.5323C14.8197 13.4876 14.51 13.4076 14.0565 13.2899C14.0465 13.2873 14.0365 13.2847 14.0263 13.282C13.9174 13.2535 13.7933 13.2211 13.6731 13.2118C13.4589 13.1952 13.2793 13.2224 13.0796 13.3016C12.9672 13.3462 12.8427 13.4234 12.727 13.4953C12.7152 13.5026 12.7035 13.5099 12.692 13.5171C12.6692 13.5312 12.6464 13.545 12.6235 13.5586C13.377 11.3087 12.8594 8.72598 11.0692 6.93354C9.21391 5.07592 6.51043 4.58641 4.20761 5.46414C4.52121 4.63258 5.0123 3.85288 5.68132 3.18302ZM3.6006 7.17918C5.62317 5.81136 8.39456 6.02442 10.1848 7.81687C11.9602 9.59458 12.1847 12.3392 10.8556 14.3606C10.6645 14.6512 10.441 14.9274 10.1848 15.1839C9.60441 15.765 8.67442 16.3251 7.63508 16.574C6.60451 16.8209 5.51275 16.7529 4.54736 16.1555C4.53778 16.1496 4.52795 16.1435 4.51789 16.1372C4.42494 16.0794 4.31323 16.01 4.21076 15.9693C4.0307 15.898 3.86593 15.873 3.67279 15.888C3.56328 15.8964 3.4511 15.9258 3.36339 15.9488C3.35464 15.9511 3.34614 15.9533 3.33791 15.9555C2.96287 16.0528 2.71209 16.1175 2.52148 16.1535C2.32797 16.19 2.26718 16.1817 2.25642 16.1795C2.04434 16.1363 1.87797 15.9701 1.8346 15.7568C1.83232 15.7455 1.82404 15.6843 1.86055 15.4905C1.89651 15.2995 1.96118 15.0484 2.05838 14.6729C2.06051 14.6646 2.06273 14.6561 2.06502 14.6474C2.08799 14.5595 2.11733 14.4472 2.12574 14.3374C2.14056 14.1441 2.11533 13.9784 2.04367 13.7982C2.00283 13.6955 1.93338 13.5842 1.87568 13.4917C1.86946 13.4817 1.86337 13.4719 1.85747 13.4624C1.25625 12.4938 1.17828 11.4123 1.41798 10.3911C1.65982 9.36075 2.21878 8.4281 2.82924 7.81687C3.07045 7.57536 3.32897 7.36288 3.6006 7.17918Z" fill="#1B1E25"/>
<path d="M8.16686 11.4998C8.16686 11.9601 8.53996 12.3332 9.0002 12.3332C9.46043 12.3332 9.83353 11.9601 9.83353 11.4998C9.83353 11.0396 9.46043 10.6665 9.0002 10.6665C8.53996 10.6665 8.16686 11.0396 8.16686 11.4998Z" fill="#1B1E25"/>
<path d="M5.66686 11.4998C5.66686 11.9601 6.03996 12.3332 6.5002 12.3332C6.96043 12.3332 7.33353 11.9601 7.33353 11.4998C7.33353 11.0396 6.96043 10.6665 6.5002 10.6665C6.03996 10.6665 5.66686 11.0396 5.66686 11.4998Z" fill="#1B1E25"/>
<path d="M3.16686 11.4998C3.16686 11.9601 3.53996 12.3332 4.0002 12.3332C4.46043 12.3332 4.83353 11.9601 4.83353 11.4998C4.83353 11.0396 4.46043 10.6665 4.0002 10.6665C3.53996 10.6665 3.16686 11.0396 3.16686 11.4998Z" fill="#1B1E25"/>
</svg>
